<?xml version="1.0" encoding="iso-8859-1"?>
<!-- Uploaded to: SVG Repo, www.svgrepo.com, Generator: SVG Repo Mixer Tools -->
<svg height="800px" width="800px" version="1.1" id="Layer_1" xmlns="http://www.w3.org/2000/svg" xmlns:xlink="http://www.w3.org/1999/xlink" 
	 viewBox="0 0 496 496" xml:space="preserve">
<path style="fill:#BC043D;" d="M239.2,128c0,4-11.2,8-15.2,8h-65.6c-4,0-15.2-3.2-15.2-8l7.2-19.2c0-4,3.2-7.2,7.2-7.2H224
	c4,0,7.2,3.2,7.2,7.2L239.2,128z"/>
<path style="fill:#9B053B;" d="M239.2,128l-7.2-19.2c0-0.8,0-1.6,0-1.6h-80c0,0.8,0,1.6,0,1.6l-8.8,19.2c0,4,11.2,8,15.2,8H224
	C228,136,239.2,132.8,239.2,128z"/>
<path style="fill:#D3DDDD;" d="M203.2,123.2c0,0.8-0.8,2.4-2.4,2.4H180c-0.8,0-2.4-0.8-2.4-2.4l4-20.8c0-0.8,0.8-2.4,2.4-2.4h12
	c0.8,0,2.4,0.8,2.4,2.4L203.2,123.2z"/>
<path style="fill:#DB0940;" d="M19.2,323.2c0,4.8-4,4-8,4l0,0c-4.8,0-8-3.2-8-8v-36c0-4.8,3.2-8,8-8l0,0c4.8,0,8,3.2,8,8V323.2z"/>
<path style="fill:#BC043D;" d="M11.2,275.2L11.2,275.2c4.8,0,8,3.2,8,8v40c0,4.8-4,4-8,4l0,0"/>
<g>
	<path style="fill:#E1EAEA;" d="M472,268c0,8.8-7.2,16-16,16h-43.2c-8.8,0-16-7.2-16-16v-10.4c0-8.8,7.2-16,16-16H456
		c8.8,0,16,7.2,16,16V268z"/>
	<path style="fill:#E1EAEA;" d="M376.8,164c0,9.6-7.2,16.8-16.8,16.8H38.4c-9.6,0-16.8-7.2-16.8-16.8v-27.2
		c0-8.8,7.2-16.8,16.8-16.8H360c9.6,0,16.8,7.2,16.8,16.8V164z"/>
</g>
<path style="fill:#D3DDDD;" d="M484,260.8c0-6.4-5.6-12-12-12h-35.2l-42.4-96c0-8.8-7.2-16-16-16H376c-2.4-6.4-8.8-12-16-12
	l-314.4,8.8c-8.8,0-23.2-2.4-24,6.4c-4,3.2-6.4,7.2-6.4,12.8v96.8c-4.8,1.6-8.8,5.6-8.8,11.2v78.4c0,6.4,5.6,12,12,12H480
	c6.4,0,12-5.6,12-12L484,260.8z"/>
<path style="fill:#C9D3D3;" d="M488.8,306.4l-3.2-30.4H6.4v63.2c0,6.4,5.6,12,12,12H480c3.2,0,6.4-1.6,8.8-4V306.4z"/>
<path style="fill:#ADC4C3;" d="M496,355.2c0,4.8-3.2,8-8,8H8c-4.8,0-8-3.2-8-8v-4.8c0-4.8,3.2-8,8-8h480c4.8,0,8,3.2,8,8V355.2z"/>
<path d="M49.6,348.8c0-27.2,22.4-49.6,49.6-49.6s49.6,22.4,49.6,49.6"/>
<path style="fill:#ADC4C3;" d="M151.2,348.8h-4c0-26.4-21.6-48-48-48s-48,21.6-48,48h-4c0-28.8,23.2-52,52-52
	S151.2,320.8,151.2,348.8z"/>
<circle style="fill:#203547;" cx="99.2" cy="351.2" r="44.8"/>
<path style="fill:#122130;" d="M131.2,319.2c17.6,17.6,17.6,45.6,0,63.2s-45.6,17.6-63.2,0"/>
<circle style="fill:#6E7577;" cx="99.2" cy="351.2" r="28"/>
<path style="fill:#4C5456;" d="M119.2,331.2c11.2,11.2,11.2,28.8,0,40s-28.8,11.2-40,0"/>
<circle style="fill:#CED8DD;" cx="99.2" cy="351.2" r="24.8"/>
<path style="fill:#B2BBC1;" d="M116.8,333.6c9.6,9.6,9.6,25.6,0,35.2s-25.6,9.6-35.2,0"/>
<path style="opacity:0.2;fill:#888F91;enable-background:new    ;" d="M110.4,351.2c0,6.4-4.8,13.6-11.2,13.6
	c-6.4,0-11.2-7.2-11.2-13.6S92.8,340,99.2,340C105.6,339.2,110.4,344.8,110.4,351.2z"/>
<circle style="fill:#E7EFF2;" cx="99.2" cy="351.2" r="11.2"/>
<path style="fill:#DAE6EA;" d="M99.2,339.2c6.4,0,11.2,4.8,11.2,11.2s-4.8,11.2-11.2,11.2"/>
<path style="fill:#666E70;" d="M99.2,326.4c-0.8,0-2.4,0-3.2,0c0.8,3.2,1.6,6.4,3.2,6.4s3.2-2.4,3.2-6.4
	C101.6,326.4,100,326.4,99.2,326.4z"/>
<path style="fill:#535A5B;" d="M99.2,332.8c1.6,0,3.2-2.4,3.2-6.4c-0.8,0-2.4,0-3.2,0"/>
<path style="fill:#666E70;" d="M96,375.2c2.4,0,4.8,0,6.4,0c-0.8-3.2-1.6-6.4-3.2-6.4C97.6,369.6,96.8,372,96,375.2z"/>
<path style="fill:#535A5B;" d="M102.4,375.2c-0.8-3.2-1.6-6.4-3.2-6.4"/>
<path style="fill:#666E70;" d="M80,336c3.2,2.4,5.6,3.2,6.4,1.6c0.8-0.8,0-4-1.6-6.4C82.4,332.8,80.8,334.4,80,336z"/>
<path style="fill:#535A5B;" d="M86.4,338.4c0.8-0.8,0-4-1.6-6.4"/>
<path style="fill:#666E70;" d="M119.2,365.6c-3.2-2.4-5.6-3.2-6.4-1.6c-0.8,0.8,0,4,1.6,6.4c0.8-0.8,1.6-1.6,2.4-2.4
	C117.6,368,118.4,367.2,119.2,365.6z"/>
<path style="fill:#535A5B;" d="M116.8,368.8c0.8-0.8,1.6-1.6,2.4-2.4c-3.2-2.4-5.6-3.2-6.4-1.6"/>
<path style="fill:#666E70;" d="M75.2,354.4c3.2-0.8,6.4-1.6,6.4-3.2s-2.4-3.2-6.4-3.2c0,0.8,0,2.4,0,3.2
	C74.4,352,74.4,353.6,75.2,354.4z"/>
<path style="fill:#535A5B;" d="M80.8,351.2c0-1.6-2.4-3.2-6.4-3.2c0,0.8,0,2.4,0,3.2"/>
<path style="fill:#666E70;" d="M117.6,351.2c0,1.6,2.4,3.2,6.4,3.2c0-2.4,0-4.8,0-6.4C120,348,117.6,349.6,117.6,351.2z"/>
<path style="fill:#535A5B;" d="M124,348c-3.2,0.8-6.4,1.6-6.4,3.2"/>
<path style="fill:#666E70;" d="M80,365.6c1.6,1.6,3.2,3.2,4.8,4.8c2.4-3.2,3.2-5.6,1.6-6.4C85.6,363.2,82.4,364,80,365.6z"/>
<path style="fill:#535A5B;" d="M84,370.4c2.4-3.2,3.2-5.6,1.6-6.4"/>
<path style="fill:#666E70;" d="M114.4,331.2c-2.4,3.2-3.2,5.6-1.6,6.4c0.8,0.8,4,0,6.4-1.6C117.6,334.4,116,332.8,114.4,331.2z"/>
<path style="fill:#535A5B;" d="M114.4,331.2c-2.4,3.2-3.2,5.6-1.6,6.4"/>
<path d="M344,348.8c0-27.2,22.4-49.6,49.6-49.6s49.6,22.4,49.6,49.6"/>
<path style="fill:#ADC4C3;" d="M445.6,348.8h-4c0-26.4-21.6-48-48-48s-48,21.6-48,48h-4c0-28.8,23.2-52,52-52
	S445.6,320.8,445.6,348.8z"/>
<circle style="fill:#203547;" cx="394.4" cy="351.2" r="44.8"/>
<path style="fill:#122130;" d="M425.6,319.2c17.6,17.6,17.6,45.6,0,63.2s-45.6,17.6-63.2,0"/>
<circle style="fill:#6E7577;" cx="394.4" cy="351.2" r="28"/>
<path style="fill:#4C5456;" d="M413.6,331.2c11.2,11.2,11.2,28.8,0,40s-28.8,11.2-40,0"/>
<circle style="fill:#CED8DD;" cx="394.4" cy="351.2" r="24.8"/>
<path style="fill:#B2BBC1;" d="M411.2,333.6c9.6,9.6,9.6,25.6,0,35.2s-25.6,9.6-35.2,0"/>
<path style="opacity:0.2;fill:#888F91;enable-background:new    ;" d="M405.6,351.2c0,6.4-4.8,13.6-11.2,13.6s-11.2-7.2-11.2-13.6
	S388,340,394.4,340S405.6,344.8,405.6,351.2z"/>
<circle style="fill:#E7EFF2;" cx="394.4" cy="351.2" r="11.2"/>
<path style="fill:#DAE6EA;" d="M394.4,339.2c6.4,0,11.2,4.8,11.2,11.2s-4.8,11.2-11.2,11.2"/>
<path style="fill:#666E70;" d="M394.4,326.4c-0.8,0-2.4,0-3.2,0c0.8,3.2,1.6,6.4,3.2,6.4s3.2-2.4,3.2-6.4
	C396,326.4,395.2,326.4,394.4,326.4z"/>
<path style="fill:#535A5B;" d="M394.4,332.8c1.6,0,3.2-2.4,3.2-6.4c-0.8,0-2.4,0-3.2,0"/>
<path style="fill:#666E70;" d="M390.4,375.2c2.4,0,4.8,0,6.4,0c-0.8-3.2-1.6-6.4-3.2-6.4C392.8,369.6,391.2,372,390.4,375.2z"/>
<path style="fill:#535A5B;" d="M397.6,375.2c-0.8-3.2-1.6-6.4-3.2-6.4"/>
<path style="fill:#666E70;" d="M374.4,336c3.2,2.4,5.6,3.2,6.4,1.6c0.8-0.8,0-4-1.6-6.4C377.6,332.8,376,334.4,374.4,336z"/>
<path style="fill:#535A5B;" d="M380.8,338.4c0.8-0.8,0-4-1.6-6.4"/>
<path style="fill:#666E70;" d="M413.6,365.6c-3.2-2.4-5.6-3.2-6.4-1.6c-0.8,0.8,0,4,1.6,6.4c0.8-0.8,1.6-1.6,2.4-2.4
	C412,368,412.8,367.2,413.6,365.6z"/>
<path style="fill:#535A5B;" d="M411.2,368.8c0.8-0.8,1.6-1.6,2.4-2.4c-3.2-2.4-5.6-3.2-6.4-1.6"/>
<path style="fill:#666E70;" d="M369.6,354.4c3.2-0.8,6.4-1.6,6.4-3.2s-2.4-3.2-6.4-3.2c0,0.8,0,2.4,0,3.2S369.6,353.6,369.6,354.4z"
	/>
<path style="fill:#535A5B;" d="M376,351.2c0-1.6-2.4-3.2-6.4-3.2c0,0.8,0,2.4,0,3.2"/>
<path style="fill:#666E70;" d="M412,351.2c0,1.6,2.4,3.2,6.4,3.2c0-2.4,0-4.8,0-6.4C415.2,348,412,349.6,412,351.2z"/>
<path style="fill:#535A5B;" d="M418.4,348c-3.2,0.8-6.4,1.6-6.4,3.2"/>
<path style="fill:#666E70;" d="M374.4,365.6c1.6,1.6,3.2,3.2,4.8,4.8c2.4-3.2,3.2-5.6,1.6-6.4C380,363.2,377.6,364,374.4,365.6z"/>
<path style="fill:#535A5B;" d="M379.2,370.4c2.4-3.2,3.2-5.6,1.6-6.4"/>
<path style="fill:#666E70;" d="M408.8,331.2c-2.4,3.2-3.2,5.6-1.6,6.4c0.8,0.8,4,0,6.4-1.6C412,334.4,410.4,332.8,408.8,331.2z"/>
<path style="fill:#535A5B;" d="M408.8,331.2c-2.4,3.2-3.2,5.6-1.6,6.4"/>
<path style="fill:#51859B;" d="M433.6,240.8l-36.8-84H312c-4.8,0-8.8,4-8.8,8.8v67.2c0,4.8,4,8.8,8.8,8.8h119.2
	C432,241.6,432.8,241.6,433.6,240.8z"/>
<g>
	<polygon style="fill:#81B6C9;" points="341.6,156.8 318.4,156.8 302.4,172.8 302.4,196 	"/>
	<path style="fill:#81B6C9;" d="M396,241.6h35.2c0.8,0,1.6,0,2.4-0.8l-11.2-25.6L396,241.6z"/>
</g>
<path style="fill:#D3DDDD;" d="M400,247.2c0.8,2.4-0.8,4.8-3.2,5.6l0,0c-2.4,0.8-4.8-0.8-5.6-3.2L364,144c-0.8-2.4,0.8-4.8,3.2-5.6
	l0,0c2.4-0.8,4.8,0.8,5.6,3.2L400,247.2z"/>
<path style="fill:#8E8E8E;" d="M325.6,261.6c0,3.2-2.4,5.6-5.6,5.6h-12.8c-3.2,0-5.6-2.4-5.6-5.6l0,0c0-3.2,2.4-5.6,5.6-5.6H320
	C323.2,256,325.6,258.4,325.6,261.6L325.6,261.6z"/>
<g>
	<path style="fill:#DDEDED;" d="M176.8,311.2c0,0.8-0.8,1.6-1.6,1.6h-10.4c-0.8,0-1.6-0.8-1.6-1.6l0,0c0-0.8,0.8-1.6,1.6-1.6h10.4
		C176,309.6,176.8,310.4,176.8,311.2L176.8,311.2z"/>
	<path style="fill:#DDEDED;" d="M176.8,320c0,0.8-0.8,1.6-1.6,1.6h-10.4c-0.8,0-1.6-0.8-1.6-1.6l0,0c0-0.8,0.8-1.6,1.6-1.6h10.4
		C176,318.4,176.8,318.4,176.8,320L176.8,320z"/>
	<path style="fill:#DDEDED;" d="M176.8,328c0,0.8-0.8,1.6-1.6,1.6h-10.4c-0.8,0-1.6-0.8-1.6-1.6l0,0c0-0.8,0.8-1.6,1.6-1.6h10.4
		C176,326.4,176.8,327.2,176.8,328L176.8,328z"/>
</g>
<path style="fill:#FFA300;" d="M488.8,314.4c0,4-3.2,6.4-6.4,6.4l0,0c-4,0-6.4-3.2-6.4-6.4v-32.8c0-4,3.2-6.4,6.4-6.4l0,0
	c4,0,6.4,3.2,6.4,6.4V314.4z"/>
<path style="fill:#FF7300;" d="M481.6,321.6L481.6,321.6c-4,0-6.4-3.2-6.4-6.4v-32.8c0-4,3.2-6.4,6.4-6.4l0,0"/>
<path id="SVGCleanerId_0" style="fill:#BC043D;" d="M151.2,201.6h-30.4v-30.4c0-6.4-5.6-12-12-12H96c-6.4,0-12,5.6-12,12v30.4H55.2
	c-6.4,0-12,5.6-12,12v12.8c0,6.4,5.6,12,12,12h30.4v30.4c0,6.4,5.6,12,12,12h12.8c6.4,0,12-5.6,12-12v-30.4h30.4c6.4,0,12-5.6,12-12
	v-12.8C163.2,206.4,157.6,201.6,151.2,201.6z"/>
<g>
	<path id="SVGCleanerId_0_1_" style="fill:#BC043D;" d="M151.2,201.6h-30.4v-30.4c0-6.4-5.6-12-12-12H96c-6.4,0-12,5.6-12,12v30.4
		H55.2c-6.4,0-12,5.6-12,12v12.8c0,6.4,5.6,12,12,12h30.4v30.4c0,6.4,5.6,12,12,12h12.8c6.4,0,12-5.6,12-12v-30.4h30.4
		c6.4,0,12-5.6,12-12v-12.8C163.2,206.4,157.6,201.6,151.2,201.6z"/>
</g>
</svg>